PathFileType	4	(X/Y/Z)	D:\Share\Shared_Data\Ergonomics\Sit To Stand Pertubation\S0\Perturbed STS.trc
DataRate	CameraRate	NumFrames	NumMarkers	Units	OrigDataRate	OrigDataStartFrame	OrigNumFrames	
100	100	9	18	m	100	17624	251
Frame#	Time	R_Heel			R_ASIS			R_Pelvis			V_Sacral			L_Pelvis			L_ASIS			Clavical			R_Acromium			L_Acromium			Sternum			Torso			R_Thigh_Med			R_Thigh_Lat			R_Thigh			R_Shank_Med			R_Shank_Lat			R_Shank			R_Toe			
		X1	Y1	Z1	X2	Y2	Z2	X3	Y3	Z3	X4	Y4	Z4	X5	Y5	Z5	X6	Y6	Z6	X7	Y7	Z7	X8	Y8	Z8	X9	Y9	Z9	X10	Y10	Z10	X11	Y11	Z11	X12	Y12	Z12	X13	Y13	Z13	X14	Y14	Z14	X15	Y15	Z15	X16	Y16	Z16	X17	Y17	Z17	X18	Y18	Z18	

17624	132.58	0.15281926	0.042020012	0.11601477	0.32996106	0.9961571	0.16761888	0.2067859	1.0203898	0.20970409	0.08254258	1.0306934	-0.016251076	0.22418047	1.0089243	-0.19842168	0.33939813	0.98092505	-0.15018561	0.3960947	1.4252479	0.0023886807	0.31942349	1.4964514	0.14096481	0.31511819	1.504821	-0.14708588	0.42054349	1.330703	-0.014315121	0.39489795	1.3799319	-0.12017413	0.29355148	0.49634299	0.031305927	0.29690717	0.51608844	0.15980745	0.36736374	0.65167792	0.097281128	0.24993436	0.10119196	0.069041977	0.19347292	0.085729713	0.1585481	0.24213664	0.31480478	0.17938445	0.38010764	0.043811611	0.10819948
17625	132.59	0.15282767	0.042053085	0.11603922	0.33190369	0.99689453	0.16754428	0.20861867	1.0206126	0.20951833	0.084536522	1.0302881	-0.016481651	0.2262912	1.0090372	-0.19850502	0.34153754	0.98150507	-0.15036827	0.39517526	1.426757	0.0023334885	0.31801669	1.4975078	0.14097005	0.31352686	1.5056718	-0.14725246	0.42027927	1.3323427	-0.014373044	0.39425046	1.3813613	-0.12028838	0.29288269	0.4964339	0.031263802	0.29624786	0.51627216	0.15967502	0.36762766	0.65137738	0.097161049	0.249911	0.10126656	0.069118401	0.19338588	0.085753166	0.15854745	0.2415144	0.31498587	0.17936319	0.38009924	0.043829586	0.10828319
17626	132.6	0.1528374	0.042084122	0.11605656	0.33381226	0.99759949	0.1674481	0.21043982	1.0208154	0.20932715	0.086490242	1.0298523	-0.016723263	0.22835056	1.0091232	-0.19860287	0.34362396	0.98204944	-0.15055267	0.39424316	1.4281923	0.0022526426	0.31662	1.4984829	0.1409592	0.31193216	1.5064573	-0.14743057	0.41999374	1.3339105	-0.014462083	0.39356921	1.3827233	-0.12042779	0.29220255	0.49651865	0.031218225	0.29556927	0.51644806	0.15955092	0.36786337	0.6510741	0.097064857	0.249864	0.10133212	0.069194458	0.19329858	0.085774315	0.15854028	0.24088246	0.31516193	0.17934169	0.38009204	0.043846493	0.10836417
17627	132.61	0.1528485	0.042113358	0.1160679	0.33568311	0.99826593	0.16732805	0.21225316	1.0209969	0.20912943	0.08840155	1.0293843	-0.016973921	0.23035573	1.0091813	-0.19871556	0.34566119	0.98256299	-0.1507428	0.39329846	1.4295552	0.0021464477	0.31523016	1.4993787	0.14093283	0.31033514	1.5071805	-0.14762006	0.41968906	1.3354103	-0.014581557	0.39285516	1.3840198	-0.12059029	0.29150885	0.49659888	0.031167488	0.29487802	0.51661652	0.15943182	0.36807422	0.65076825	0.096979759	0.24979814	0.10139011	0.069270493	0.19321309	0.085793381	0.15852904	0.24024619	0.31533368	0.17932033	0.38008661	0.043862122	0.10844167
17628	132.62	0.15286108	0.04214098	0.11607478	0.33751291	0.99888788	0.16718219	0.21405525	1.0211548	0.20892372	0.090269669	1.0288838	-0.017232796	0.23230566	1.0092107	-0.19884384	0.34765274	0.98304956	-0.15094417	0.39234149	1.4308478	0.0020156705	0.31384439	1.5001973	0.14089162	0.308737	1.507844	-0.14782005	0.41936642	1.3368446	-0.014729957	0.39211063	1.3852527	-0.12077402	0.29080295	0.49667599	0.031113583	0.29417993	0.51677875	0.15931467	0.36826422	0.65046259	0.096894478	0.24971912	0.10144298	0.069347786	0.19312997	0.085810371	0.1585172	0.23960991	0.31550214	0.17929939	0.3800827	0.043876465	0.10851581
17629	132.63	0.15287526	0.042166901	0.11607855	0.33930032	0.99946173	0.16700992	0.21583731	1.0212853	0.20870752	0.092095459	1.0283511	-0.017500496	0.23420076	1.0092115	-0.19898891	0.34960147	0.98351129	-0.1511626	0.39137231	1.4320718	0.0018616709	0.31246094	1.5009409	0.14083662	0.30713913	1.5084496	-0.14802917	0.41902478	1.3382158	-0.014905328	0.39133859	1.3864241	-0.12097709	0.29008774	0.49675073	0.031060909	0.29347763	0.51693756	0.1591967	0.36843713	0.65016351	0.096800903	0.24963226	0.10149339	0.069427887	0.19304831	0.08582505	0.15850783	0.23897476	0.31566852	0.17927887	0.38007944	0.043889545	0.10858749
17630	132.64	0.15289087	0.042190582	0.11607979	0.34104684	0.99998737	0.16681203	0.21758975	1.0213853	0.20847705	0.093880836	1.0277864	-0.017778997	0.23604262	1.0091839	-0.19915277	0.35150861	0.98394836	-0.15140234	0.39039108	1.4332291	0.0016864311	0.31107907	1.5016116	0.14076938	0.30554251	1.5089993	-0.14824561	0.41866092	1.3395256	-0.015105629	0.39054269	1.387535	-0.12119741	0.2893649	0.49682358	0.031014175	0.2927695	0.51709607	0.15907588	0.36859445	0.64987988	0.096694351	0.24954195	0.10154385	0.069511848	0.19296614	0.085837151	0.15850262	0.23833667	0.31583414	0.17925818	0.38007578	0.043901581	0.10865818
17631	132.65	0.15290732	0.042211136	0.11607828	0.34275748	1.0004698	0.16659058	0.21930626	1.0214528	0.20822803	0.095628113	1.0271907	-0.018071213	0.2378343	1.0091285	-0.19933789	0.35337305	0.98435852	-0.15166461	0.38939731	1.4343204	0.001492426	0.30969897	1.5022122	0.14069135	0.30394812	1.5094943	-0.14846753	0.41827097	1.3407745	-0.015328812	0.3897272	1.388587	-0.12143269	0.28863229	0.49689523	0.030976509	0.2920491	0.51725726	0.15895085	0.36873532	0.64961981	0.096573318	0.24945108	0.10159615	0.069599831	0.19288086	0.085846535	0.15850172	0.23768604	0.31600052	0.17923647	0.38007059	0.043913219	0.10872931
17632	132.66	0.15292331	0.042227631	0.11607368	0.34443997	1.0009178	0.16634805	0.2209845	1.0214893	0.20795717	0.097339096	1.0265649	-0.018380178	0.23958049	1.0090472	-0.19954649	0.35519199	0.98473853	-0.15194675	0.38839044	1.435347	0.0012823589	0.30832114	1.5027439	0.14060362	0.30235687	1.509936	-0.14869357	0.41785385	1.3419634	-0.015572662	0.38889691	1.3895817	-0.12168067	0.28788245	0.49696716	0.030948511	0.29130646	0.51742316	0.15882097	0.36885703	0.64938916	0.096438301	0.24936122	0.10165135	0.069691109	0.19279005	0.08585331	0.15850381	0.23701022	0.31616953	0.17921274	0.38006293	0.043925507	0.10880193
